<?xml version="1.0" encoding="UTF-8"?>
<svg id="Layer_2" data-name="Layer 2" xmlns="http://www.w3.org/2000/svg" viewBox="0 0 953.24 267.52">
  <defs>
    <style>
      .cls-1 {
        fill: #d93961;
      }

      .cls-2 {
        fill: #010101;
      }
    </style>
  </defs>
  <g id="Layer_1-2" data-name="Layer 1">
    <g>
      <g>
        <path class="cls-2" d="M265.91,167.21V52.79h21.32v51.88l53.09-51.88h20.11l-65.15,56.1c1.61-.4,3.15-.6,4.62-.6,3.89,0,7.74,1.04,11.56,3.12,3.82,2.08,7.27,4.66,10.36,7.74.8.8,1.94,1.95,3.42,3.42,1.47,1.48,3.15,3.22,5.03,5.23,1.88,2.01,3.92,4.19,6.13,6.54,2.21,2.35,4.39,4.66,6.54,6.94,5.09,5.36,10.66,11.2,16.69,17.5,3.48,3.49,6.16,5.63,8.04,6.44,1.07.54,1.94.87,2.61,1-1.07.54-2.21,1.01-3.42,1.41-1.08.27-2.18.53-3.32.8-1.14.27-2.31.4-3.52.4-4.69,0-9.55-1-14.58-3.02-5.03-2.01-10.09-5.76-15.18-11.26l-28.76-30.16c-3.75-3.89-6.74-6.33-8.95-7.34s-3.99-1.24-5.33-.7v50.88h-21.32Z"/>
        <path class="cls-2" d="M367.86,167.21l58.92-114.42h1.01l.4,1.01.4-1.01h5.83l58.92,114.42h-23.93l-14.88-28.56h-60.33l-14.68,28.56h-11.66ZM449.1,128l-24.73-47.86-24.73,47.86h49.47Z"/>
        <path class="cls-2" d="M516.67,52.79l38.01,46.05,38.41-46.05h12.47l-44.64,53.69v60.73h-21.32v-56.51l-48.26-57.92h25.34Z"/>
        <path class="cls-2" d="M613.59,167.21V52.79h21.32v51.88l53.09-51.88h20.11l-65.15,56.1c1.61-.4,3.15-.6,4.62-.6,3.89,0,7.74,1.04,11.56,3.12,3.82,2.08,7.27,4.66,10.36,7.74.8.8,1.94,1.95,3.42,3.42,1.47,1.48,3.15,3.22,5.03,5.23,1.88,2.01,3.92,4.19,6.13,6.54,2.21,2.35,4.39,4.66,6.54,6.94,5.09,5.36,10.66,11.2,16.69,17.5,3.48,3.49,6.16,5.63,8.04,6.44,1.07.54,1.94.87,2.61,1-1.07.54-2.21,1.01-3.42,1.41-1.08.27-2.18.53-3.32.8-1.14.27-2.31.4-3.52.4-4.69,0-9.55-1-14.58-3.02-5.03-2.01-10.09-5.76-15.18-11.26l-28.76-30.16c-3.75-3.89-6.74-6.33-8.95-7.34s-3.99-1.24-5.33-.7v50.88h-21.32Z"/>
        <path class="cls-2" d="M715.55,167.21l58.92-114.42h1.01l.4,1.01.4-1.01h5.83l58.92,114.42h-23.93l-14.88-28.56h-60.33l-14.68,28.56h-11.66ZM796.79,128l-24.73-47.86-24.73,47.86h49.47Z"/>
        <path class="cls-2" d="M864.35,52.79l38.01,46.05,38.41-46.05h12.47l-44.64,53.69v60.73h-21.32v-56.51l-48.26-57.92h25.34Z"/>
      </g>
      <g>
        <path class="cls-1" d="M157.11,209.37c-11.8,14.46-28.14,20.2-40.16-1.44,5.04.91,9.76-5.83,13.7-6.61,2.04-.41,3.22,1.23,5.8,1.35,9.22-5.15,9.68,6.06,20.66,6.7Z"/>
        <path class="cls-2" d="M63.39,247.28l15.32-14.67-2.55,34.91s-44.95-20.74-63.84-74.88c4.6-13.66,44.95-50.09,44.95-50.09l-51.08,30.86s-15.79-17.3,3.06-55.66,75.08-20.24,128.2-88.04c-5,6.16-87.85,60.72-112.88,53.13-49.03-4.55,31.67-28.84,31.67-28.84,0,0,36.77-8.1,70.48-39.47,33.71-31.37,29.11,2.53,29.11,2.53l-24.52,31.37s22.21-4.87,30.65-28.57c8.84-24.86,21.32-5.51,21.32-5.51,0,0-33.07,77.08-84.14,95.3,59.25-30.36,88.36-66.28,92.96-82.98,4.6-16.7,12.26,0,12.26,0,0,0-14.3,62.23-84.79,118.9-70.48,56.67-56.18,101.7-56.18,101.7Z"/>
        <path class="cls-2" d="M47.16,22.53S59.93,4.55,84.45.51c24.52-4.05,5.11,17.53,5.11,17.53,0,0-21.96,15.73-42.39,4.49Z"/>
      </g>
      <g>
        <path class="cls-2" d="M290.14,198.42v26.1h-5.23v-11.1h-11.18v11.1h-5.23v-26.1h5.23v10.73h11.18v-10.73h5.23Z"/>
        <path class="cls-2" d="M498.23,219.54h-10.39l-1.72,4.97h-5.5l9.38-26.13h6.09l9.38,26.13h-5.53l-1.72-4.97ZM496.81,215.35l-3.78-10.92-3.78,10.92h7.55Z"/>
        <path class="cls-2" d="M701.16,198.42v26.1h-5.23v-26.1h5.23Z"/>
        <path class="cls-2" d="M906.7,224.51l-5.76-10.17h-2.47v10.17h-5.23v-26.1h9.79c2.02,0,3.74.36,5.16,1.07,1.42.71,2.49,1.67,3.2,2.88.71,1.21,1.07,2.56,1.07,4.06,0,1.72-.5,3.27-1.5,4.65-1,1.38-2.48,2.34-4.45,2.86l6.24,10.58h-6.06ZM898.48,210.42h4.37c1.42,0,2.48-.34,3.18-1.03.7-.68,1.05-1.64,1.05-2.86s-.35-2.12-1.05-2.79c-.7-.66-1.76-.99-3.18-.99h-4.37v7.66Z"/>
      </g>
    </g>
  </g>
</svg>