<?xml version="1.0" encoding="UTF-8"?>
<svg id="Layer_2" data-name="Layer 2" xmlns="http://www.w3.org/2000/svg" viewBox="0 0 204.36 267.52">
  <defs>
    <style>
      .cls-1 {
        fill: #d93961;
      }

      .cls-2 {
        fill: #010101;
      }
    </style>
  </defs>
  <g id="Layer_1-2" data-name="Layer 1">
    <g>
      <path class="cls-1" d="M157.11,209.37c-11.8,14.46-28.14,20.2-40.16-1.44,5.04.91,9.76-5.83,13.7-6.61,2.04-.41,3.22,1.23,5.8,1.35,9.22-5.15,9.68,6.06,20.66,6.7Z"/>
      <path class="cls-2" d="M63.39,247.28l15.32-14.67-2.55,34.91s-44.95-20.74-63.84-74.88c4.6-13.66,44.95-50.09,44.95-50.09l-51.08,30.86s-15.79-17.3,3.06-55.66,75.08-20.24,128.2-88.04c-5,6.16-87.85,60.72-112.88,53.13-49.03-4.55,31.67-28.84,31.67-28.84,0,0,36.77-8.1,70.48-39.47,33.71-31.37,29.11,2.53,29.11,2.53l-24.52,31.37s22.21-4.87,30.65-28.57c8.84-24.86,21.32-5.51,21.32-5.51,0,0-33.07,77.08-84.14,95.3,59.25-30.36,88.36-66.28,92.96-82.98,4.6-16.7,12.26,0,12.26,0,0,0-14.3,62.23-84.79,118.9-70.48,56.67-56.18,101.7-56.18,101.7Z"/>
      <path class="cls-2" d="M47.16,22.53S59.93,4.55,84.45.51c24.52-4.05,5.11,17.53,5.11,17.53,0,0-21.96,15.73-42.39,4.49Z"/>
    </g>
  </g>
</svg>