<?xml version="1.0" encoding="UTF-8"?>
<svg id="Layer_2" data-name="Layer 2" xmlns="http://www.w3.org/2000/svg" viewBox="0 0 687.33 588.09">
  <defs>
    <style>
      .cls-1 {
        fill: #d93961;
      }

      .cls-2 {
        fill: #010101;
      }
    </style>
  </defs>
  <g id="Layer_1-2" data-name="Layer 1">
    <g>
      <g>
        <path class="cls-2" d="M0,530.79v-114.42h21.32v51.88l53.09-51.88h20.11l-65.15,56.1c1.61-.4,3.15-.6,4.62-.6,3.89,0,7.74,1.04,11.56,3.12,3.82,2.08,7.27,4.66,10.36,7.74.8.8,1.94,1.95,3.42,3.42,1.47,1.48,3.15,3.22,5.03,5.23,1.88,2.01,3.92,4.19,6.13,6.54,2.21,2.35,4.39,4.66,6.54,6.94,5.09,5.36,10.66,11.2,16.69,17.5,3.48,3.49,6.16,5.63,8.04,6.44,1.07.54,1.94.87,2.61,1-1.07.54-2.21,1.01-3.42,1.41-1.08.27-2.18.53-3.32.8-1.14.27-2.31.4-3.52.4-4.69,0-9.55-1-14.58-3.02-5.03-2.01-10.09-5.76-15.18-11.26l-28.76-30.16c-3.75-3.89-6.74-6.33-8.95-7.34s-3.99-1.24-5.33-.7v50.88H0Z"/>
        <path class="cls-2" d="M101.95,530.79l58.92-114.42h1.01l.4,1.01.4-1.01h5.83l58.92,114.42h-23.93l-14.88-28.56h-60.33l-14.68,28.56h-11.66ZM183.19,491.57l-24.73-47.86-24.73,47.86h49.47Z"/>
        <path class="cls-2" d="M250.76,416.36l38.01,46.05,38.41-46.05h12.47l-44.64,53.69v60.73h-21.32v-56.51l-48.26-57.92h25.34Z"/>
        <path class="cls-2" d="M347.68,530.79v-114.42h21.32v51.88l53.09-51.88h20.11l-65.15,56.1c1.61-.4,3.15-.6,4.62-.6,3.89,0,7.74,1.04,11.56,3.12,3.82,2.08,7.27,4.66,10.36,7.74.8.8,1.94,1.95,3.42,3.42,1.47,1.48,3.15,3.22,5.03,5.23,1.88,2.01,3.92,4.19,6.13,6.54,2.21,2.35,4.39,4.66,6.54,6.94,5.09,5.36,10.66,11.2,16.69,17.5,3.48,3.49,6.16,5.63,8.04,6.44,1.07.54,1.94.87,2.61,1-1.07.54-2.21,1.01-3.42,1.41-1.08.27-2.18.53-3.32.8-1.14.27-2.31.4-3.52.4-4.69,0-9.55-1-14.58-3.02-5.03-2.01-10.09-5.76-15.18-11.26l-28.76-30.16c-3.75-3.89-6.74-6.33-8.95-7.34s-3.99-1.24-5.33-.7v50.88h-21.32Z"/>
        <path class="cls-2" d="M449.64,530.79l58.92-114.42h1.01l.4,1.01.4-1.01h5.83l58.92,114.42h-23.93l-14.88-28.56h-60.33l-14.68,28.56h-11.66ZM530.88,491.57l-24.73-47.86-24.73,47.86h49.47Z"/>
        <path class="cls-2" d="M598.44,416.36l38.01,46.05,38.41-46.05h12.47l-44.64,53.69v60.73h-21.32v-56.51l-48.26-57.92h25.34Z"/>
      </g>
      <g>
        <path class="cls-1" d="M416.37,261.83c-14.76,18.09-35.19,25.26-50.23-1.8,6.3,1.14,12.2-7.28,17.13-8.27,2.55-.51,4.02,1.53,7.26,1.69,11.54-6.45,12.1,7.58,25.84,8.38Z"/>
        <path class="cls-2" d="M299.18,309.23l19.16-18.35-3.19,43.66s-56.21-25.94-79.84-93.64c5.75-17.08,56.21-62.64,56.21-62.64l-63.87,38.6s-19.74-21.64,3.83-69.6c23.58-47.96,93.89-25.31,160.32-110.09-6.25,7.71-109.86,75.93-141.16,66.44-61.32-5.69,39.6-36.07,39.6-36.07,0,0,45.99-10.12,88.14-49.35,42.16-39.23,36.41,3.16,36.41,3.16l-30.66,39.23s27.78-6.08,38.32-35.73c11.06-31.08,26.66-6.89,26.66-6.89,0,0-41.35,96.39-105.22,119.17,74.09-37.96,110.5-82.89,116.25-103.77,5.75-20.88,15.33,0,15.33,0,0,0-17.88,77.82-106.03,148.69-88.14,70.86-70.26,127.18-70.26,127.18Z"/>
        <path class="cls-2" d="M278.88,28.17s15.97-22.48,46.63-27.54c30.66-5.06,6.39,21.92,6.39,21.92,0,0-27.46,19.67-53.01,5.62Z"/>
      </g>
      <g>
        <path class="cls-2" d="M24.23,561.99v26.1h-5.23v-11.1H7.81v11.1H2.58v-26.1h5.23v10.73h11.18v-10.73h5.23Z"/>
        <path class="cls-2" d="M232.32,583.11h-10.39l-1.72,4.97h-5.5l9.38-26.13h6.09l9.38,26.13h-5.53l-1.72-4.97ZM230.9,578.93l-3.78-10.92-3.78,10.92h7.55Z"/>
        <path class="cls-2" d="M435.25,561.99v26.1h-5.23v-26.1h5.23Z"/>
        <path class="cls-2" d="M640.79,588.09l-5.76-10.17h-2.47v10.17h-5.23v-26.1h9.79c2.02,0,3.74.36,5.16,1.07,1.42.71,2.49,1.67,3.2,2.88.71,1.21,1.07,2.56,1.07,4.06,0,1.72-.5,3.27-1.5,4.65-1,1.38-2.48,2.34-4.45,2.86l6.24,10.58h-6.06ZM632.57,573.99h4.37c1.42,0,2.48-.34,3.18-1.03.7-.68,1.05-1.64,1.05-2.86s-.35-2.12-1.05-2.79c-.7-.66-1.76-.99-3.18-.99h-4.37v7.66Z"/>
      </g>
    </g>
  </g>
</svg>